<svg width="235" height="170" viewBox="0 0 235 170" fill="none" xmlns="http://www.w3.org/2000/svg">
<path d="M117.947 66.831L157.301 33.1748H235L205.232 58.6327H148.724L137.453 66.831H117.947Z" fill="#FF79E9"/>
<path d="M137.453 66.831H177.482L195.646 89.4676H152.76L137.453 66.831Z" fill="#FF79E9"/>
<path d="M117.053 66.831L77.6991 33.1748H0L29.7678 58.6327H86.2763L97.5472 66.831H117.053Z" fill="#FF79E9"/>
<path d="M97.5472 66.831H57.5175L39.3541 89.4676H82.24L97.5472 66.831Z" fill="#FF79E9"/>
<path d="M100.97 101.065L117.947 70.7034L134.924 101.065L117.947 169.886L100.97 101.065Z" fill="#FF79E9"/>
<path d="M100.97 21.0023L117.947 41.2167L134.924 21.0023L117.947 0.114014L100.97 21.0023Z" fill="#FF79E9"/>
</svg>
